<svg width="48" height="48" viewBox="0 0 48 48" fill="none" xmlns="http://www.w3.org/2000/svg">
<path d="M32.5 33.5V30.5H40V33.5H32.5ZM35 48L28.95 43.5L30.75 41.1L36.8 45.6L35 48ZM30.9 22.85L29.1 20.45L35 16L36.8 18.4L30.9 22.85ZM6.5 46V38H3C2.16667 38 1.45833 37.7083 0.875 37.125C0.291667 36.5417 0 35.8333 0 35V29C0 28.1667 0.291667 27.4583 0.875 26.875C1.45833 26.2917 2.16667 26 3 26H12L22 20V44L12 38H9.5V46H6.5ZM24 38.7V25.3C24.9 26.1 25.625 27.075 26.175 28.225C26.725 29.375 27 30.6333 27 32C27 33.3667 26.725 34.625 26.175 35.775C25.625 36.925 24.9 37.9 24 38.7Z" fill="white"/>
</svg>
